<?xml version="1.0" encoding="UTF-8" standalone="no"?> <svg width="24" height="24" viewBox="0 0 24 24" fill="none" xmlns="http://www.w3.org/2000/svg">
<path fill-rule="evenodd" clip-rule="evenodd" d="M4.27014 3C3.4223 3 2.95914 3.98886 3.50192 4.64018L10.3047 12.8035C10.754 13.3427 11.0001 14.0223 11.0001 14.7241V19C11.0001 19.3148 11.1482 19.6111 11.4001 19.8L13.0001 21V14.7241C13.0001 14.0223 13.2461 13.3427 13.6954 12.8035L20.4982 4.64018C21.041 3.98886 20.5778 3 19.73 3H4.27014ZM1.96547 5.92055C0.337156 3.96657 1.72663 1 4.27014 1H19.73C22.2735 1 23.663 3.96657 22.0346 5.92055L15.2318 14.0839C15.0821 14.2636 15.0001 14.4902 15.0001 14.7241V21C15.0001 22.6481 13.1185 23.5889 11.8001 22.6L10.2001 21.4C9.44464 20.8334 9.00005 19.9443 9.00005 19V14.7241C9.00005 14.4902 8.91804 14.2636 8.76828 14.0839L1.96547 5.92055Z" fill="#293644"/>
</svg>
